<svg xmlns="http://www.w3.org/2000/svg" width="210.3" height="16" viewBox="0 0 210.3 16">
  <path id="Path_31" data-name="Path 31" d="M2.925,0h3.7V-15H3.55L.05-11.275l1.625,1.85,1.25-1.225Zm.95-.7V-6.025H5.7V-.7Zm7.7-3.775A5.177,5.177,0,0,0,16.875.5,5.139,5.139,0,0,0,22.15-4.475a4.793,4.793,0,0,0-4.675-4.8,4.93,4.93,0,0,0-2.2.55v-1.8a1.569,1.569,0,0,1,1.6-1.55A1.434,1.434,0,0,1,18.4-10.65v.375h3.75v-.375a5.055,5.055,0,0,0-5.275-4.85,5.161,5.161,0,0,0-5.3,4.975Zm3.6-.05a1.7,1.7,0,0,1,1.7-1.575,1.715,1.715,0,0,1,1.7,1.575,1.74,1.74,0,0,1-1.7,1.625A1.722,1.722,0,0,1,15.175-4.525Zm-2.825.1h1.925a2.533,2.533,0,0,0,2.6,2.3,2.427,2.427,0,0,0,2.575-2.3H21.4A4.462,4.462,0,0,1,16.875-.25,4.445,4.445,0,0,1,12.35-4.425ZM35.5,0h6.625c2.85,0,4.5-1.9,4.5-3.975,0-1.55-.65-2.6-2.2-3.7v-.05A3.562,3.562,0,0,0,46.05-10.8a4.329,4.329,0,0,0-4.5-4.2H35.5Zm.925-.7V-14.3h1.8V-.7ZM39.15-9.025V-11.8H40.9a1.375,1.375,0,0,1,1.45,1.375,1.366,1.366,0,0,1-1.45,1.4Zm0,5.75V-5.9h2.225a1.322,1.322,0,0,1,1.4,1.325,1.262,1.262,0,0,1-1.4,1.3ZM49.35,0H53.3l.725-1.55H59.95L60.7,0h3.95L57.3-15.5h-.65Zm5.825-4.175,1.75-3.8h.05l1.725,3.8Zm4.525,0h2.025L63.375-.7H61.3ZM50.6-.7l1.65-3.475h2.025L52.65-.7ZM68.75,0h3.675V-15H68.75Zm.925-.7V-6.05H71.5V-.7ZM77.25-4.4A4.759,4.759,0,0,0,82.375.5,4.971,4.971,0,0,0,87.45-4.35C87.45-6.7,86.2-8.2,83.525-9c-1.275-.375-2.65-.575-2.65-1.7a1.449,1.449,0,0,1,1.575-1.45A1.455,1.455,0,0,1,84-10.6h3.45c-.2-2.775-1.775-4.9-5.1-4.9a4.993,4.993,0,0,0-5.1,4.85c0,2.575,1.4,3.75,3.925,4.65,1.225.425,2.7.75,2.7,1.875a1.322,1.322,0,0,1-1.5,1.3A1.563,1.563,0,0,1,80.825-4.4Zm7.425-6.9a2.207,2.207,0,0,0-2.3-1.55V-14.8a3.878,3.878,0,0,1,4.175,3.5Zm-6.55,7.6h1.95a2.281,2.281,0,0,0,2.3,1.575V-.2C80-.2,78.175-1.825,78.125-3.7ZM92.425,0H96.1V-5.925h5.875V0h3.65V-15h-3.65v5.9H96.1V-15H92.425ZM102.9-.7V-5.925h1.8V-.7Zm-9.55,0V-5.925h1.825V-.7Zm16.375.7h3.95l.725-1.55h5.925l.75,1.55h3.95l-7.35-15.5h-.65Zm5.825-4.175,1.75-3.8h.05l1.725,3.8Zm4.525,0H122.1L123.75-.7h-2.075ZM110.975-.7l1.65-3.475h2.025L113.025-.7Zm18.15.7H132.8V-7.275h.05L137.45,0h4.05l-5.425-7.875L141.225-15h-4.05L132.85-8.3h-.05V-15h-3.675Zm.925-.7V-14.3h1.825V-.7Zm22.575.7h12.4V-3.275H160.55L163.25-6a5.407,5.407,0,0,0,1.775-4,5.638,5.638,0,0,0-5.75-5.5A5.689,5.689,0,0,0,153.45-10a5.358,5.358,0,0,0,3.525,4.95L152.625-.4ZM157.5-5.6a4.788,4.788,0,0,1-3.2-4.4,4.884,4.884,0,0,1,4.85-4.75v1.9A3,3,0,0,0,156.225-10a3,3,0,0,0,2.65,2.85Zm1.775-2.35a2.083,2.083,0,0,1-2.15-2.05,2.078,2.078,0,0,1,2.15-2.025A2.028,2.028,0,0,1,161.35-10,2.033,2.033,0,0,1,159.275-7.95Zm9.65,2.025A6.423,6.423,0,0,0,175.55.5a6.479,6.479,0,0,0,6.725-6.425v-3.1A6.5,6.5,0,0,0,175.55-15.5a6.449,6.449,0,0,0-6.625,6.475Zm3.6-.075V-8.95a2.982,2.982,0,0,1,3.025-3.125,2.994,2.994,0,0,1,3.075,3.125V-6a2.953,2.953,0,0,1-3.075,3.075A2.941,2.941,0,0,1,172.525-6Zm-2.65.15h1.65a3.839,3.839,0,0,0,4.025,3.725,3.868,3.868,0,0,0,4.075-3.725h1.625a5.531,5.531,0,0,1-5.7,5.5A5.525,5.525,0,0,1,169.875-5.85ZM186.125,0h4L198-14.5V-15H186v3.3h6.425Zm.675-12.45V-14.2h7.075c-.375.6-.65,1.15-1.025,1.75Zm13.375,8.175A4.948,4.948,0,0,0,205.275.5a4.942,4.942,0,0,0,5.075-4.775,4.593,4.593,0,0,0-1.525-3.475,4.721,4.721,0,0,0,1.25-3.075,4.728,4.728,0,0,0-4.8-4.675,4.732,4.732,0,0,0-4.825,4.575,4.613,4.613,0,0,0,1.225,3.175,4.658,4.658,0,0,0-1.5,3.375Zm2.125-3.95a3.742,3.742,0,0,1-1.075-2.65,4.035,4.035,0,0,1,4-3.95v1.75a2.3,2.3,0,0,0-2.25,2.2,2.24,2.24,0,0,0,1.05,1.85A4.972,4.972,0,0,0,202.3-8.225ZM205.275-9.4a1.505,1.505,0,0,1-1.525-1.475,1.485,1.485,0,0,1,1.525-1.45,1.511,1.511,0,0,1,1.5,1.45A1.533,1.533,0,0,1,205.275-9.4Zm.05,9.2V-2a2.37,2.37,0,0,0,2.35-2.3,2.359,2.359,0,0,0-1.425-2.125,9.573,9.573,0,0,0,1.975-.825A3.9,3.9,0,0,1,209.55-4.3,4.263,4.263,0,0,1,205.325-.2ZM203.8-4.3a1.5,1.5,0,0,1,1.525-1.45,1.511,1.511,0,0,1,1.5,1.45,1.533,1.533,0,0,1-1.5,1.475A1.522,1.522,0,0,1,203.8-4.3Z" transform="translate(-0.05 15.5)" fill="#222"/>
</svg>
