<svg xmlns="http://www.w3.org/2000/svg" width="57.551" height="87.12" viewBox="0 0 57.551 87.12">
  <path id="Union_1" data-name="Union 1" d="M-511.753-25.817l-23.377-23.377a5.34,5.34,0,0,1,0-7.552,5.387,5.387,0,0,1,.532-.466L-511.512-80.3a5.147,5.147,0,0,1,7.278,0,5.146,5.146,0,0,1,0,7.279L-518.912-58.34h64.073a5.266,5.266,0,0,1,5.266,5.266,5.267,5.267,0,0,1-5.266,5.267h-63.8L-504.2-33.368a5.341,5.341,0,0,1,0,7.551,5.323,5.323,0,0,1-3.776,1.564A5.323,5.323,0,0,1-511.753-25.817Z" transform="translate(81.804 -449.573) rotate(-90)" fill="#222"/>
</svg>
