<svg id="online-payment2" xmlns="http://www.w3.org/2000/svg" width="262.991" height="262.421" viewBox="0 0 262.991 262.421">
  <path id="Path_1" data-name="Path 1" d="M256.824,131.837l-12.829-8.164V22.495A17.546,17.546,0,0,0,226.5,5H22.395A17.546,17.546,0,0,0,4.9,22.495V226.6a17.546,17.546,0,0,0,17.495,17.495H98.205a23.4,23.4,0,0,0,23.326,23.326h99.137a23.4,23.4,0,0,0,23.326-23.326V196.859L264.405,164.2A23.605,23.605,0,0,0,256.824,131.837ZM16.563,22.495a5.849,5.849,0,0,1,5.832-5.832H226.5a5.849,5.849,0,0,1,5.832,5.832V51.653H16.563V22.495ZM98.205,191.611v40.821H22.395a5.849,5.849,0,0,1-5.832-5.832V63.316H232.332v53.359L172.85,79.644a23.262,23.262,0,0,0-32.074,7.581l-27.7,44.612a23.262,23.262,0,0,0,7.581,32.074l7,4.374h-6.123A23.4,23.4,0,0,0,98.205,191.611Zm134.126,52.484a11.7,11.7,0,0,1-11.663,11.663H121.532a11.7,11.7,0,0,1-11.663-11.663V226.6H232.332Zm0-29.158H109.868V203.274H232.332ZM109.868,191.611a11.7,11.7,0,0,1,11.663-11.663h99.137a11.7,11.7,0,0,1,11.663,11.663Zm144.623-33.532-13.7,21.868a23.4,23.4,0,0,0-20.119-11.663H149.815l-23.326-14.579a13.193,13.193,0,0,1-5.248-7.289,11.6,11.6,0,0,1,1.458-8.747l27.7-44.612a13.193,13.193,0,0,1,7.289-5.248,11.6,11.6,0,0,1,8.747,1.458L250.7,141.751A11.845,11.845,0,0,1,254.492,158.079Z" transform="translate(-4.9 -5)"/>
  <path id="Path_2" data-name="Path 2" d="M103.458,57.452,73.717,39.083a4.758,4.758,0,0,0-4.374-.583,4.647,4.647,0,0,0-3.5,2.624L53.6,60.951a6.047,6.047,0,0,0,1.749,8.164L85.089,87.193A5.626,5.626,0,0,0,88,88.068a2.629,2.629,0,0,0,1.458-.292,4.647,4.647,0,0,0,3.5-2.624l12.246-19.827A5.459,5.459,0,0,0,103.458,57.452Zm-17.2,16.62L66.428,61.826l6.123-9.914L92.378,64.158Z" transform="translate(86.651 58.596)"/>
  <circle id="Ellipse_1" data-name="Ellipse 1" cx="6" cy="6" r="6" transform="translate(21.358 23.421)"/>
  <circle id="Ellipse_2" data-name="Ellipse 2" cx="6" cy="6" r="6" transform="translate(44.358 23.421)"/>
  <ellipse id="Ellipse_3" data-name="Ellipse 3" cx="5.5" cy="6" rx="5.5" ry="6" transform="translate(68.358 23.421)"/>
</svg>
