<svg xmlns="http://www.w3.org/2000/svg" width="285.437" height="285.349" viewBox="0 0 285.437 285.349">
  <path id="package" d="M289.428,185.721l-28.535-44.388a6.229,6.229,0,0,0-5.39-2.854H39.906a6.229,6.229,0,0,0-5.39,2.854L5.981,185.721a6.477,6.477,0,0,0-.317,6.341,6.659,6.659,0,0,0,5.707,3.171H36.736v76.093a19.079,19.079,0,0,0,19.023,19.023H239.651a19.079,19.079,0,0,0,19.023-19.023V195.55h25.364a7.084,7.084,0,0,0,5.707-3.171C290.7,189.843,290.7,187.307,289.428,185.721ZM23.1,182.551l20.292-31.705h92.58l-20.292,31.705Zm118.261,95.434h-85.6a6.36,6.36,0,0,1-6.341-6.341V195.55H119.17a7.061,7.061,0,0,0,5.39-2.854l16.8-26.316Zm104.628-63.411H220.627a6.341,6.341,0,0,0,0,12.682h25.364v19.023H220.627a6.341,6.341,0,1,0,0,12.682h25.364v12.682a6.36,6.36,0,0,1-6.341,6.341h-85.6V166.064l16.8,26.316a6.229,6.229,0,0,0,5.39,2.854h69.752Zm-66.264-32.023-20.292-31.705h92.58l20.292,31.705ZM103.951,86.166,143.9,117.554a6.093,6.093,0,0,0,3.8,1.268,5.535,5.535,0,0,0,3.8-1.268l39.949-31.705c18.389-15.219,26-35.193,19.974-53.9-5.073-14.9-18.072-26-32.974-26.95h-2.536a41.1,41.1,0,0,0-28.535,11.414A39.788,39.788,0,0,0,119.17,5h-2.536c-14.585.951-27.9,11.731-32.974,27.267C77.953,50.973,85.245,71.264,103.951,86.166ZM96.025,36.388c3.488-10.463,12.365-18.072,21.56-18.706h1.585A28.275,28.275,0,0,1,142.315,29.73a6.341,6.341,0,0,0,10.146,0,28.885,28.885,0,0,1,25.047-12.048c9.195.634,18.072,8.243,21.56,18.706,4.439,13.633-1.268,28.218-15.853,39.949l-35.827,28.535L111.56,76.654C97.293,64.606,91.586,50.022,96.025,36.388Z" transform="translate(-4.986 -5)"/>
</svg>
