<svg xmlns="http://www.w3.org/2000/svg" width="109.375" height="16" viewBox="0 0 109.375 16">
  <path id="Path_32" data-name="Path 32" d="M1.125-5.925A6.423,6.423,0,0,0,7.75.5a6.479,6.479,0,0,0,6.725-6.425v-3.1A6.5,6.5,0,0,0,7.75-15.5,6.449,6.449,0,0,0,1.125-9.025ZM4.725-6V-8.95A2.982,2.982,0,0,1,7.75-12.075,2.994,2.994,0,0,1,10.825-8.95V-6A2.953,2.953,0,0,1,7.75-2.925,2.941,2.941,0,0,1,4.725-6Zm-2.65.15h1.65A3.839,3.839,0,0,0,7.75-2.125,3.868,3.868,0,0,0,11.825-5.85H13.45a5.531,5.531,0,0,1-5.7,5.5A5.525,5.525,0,0,1,2.075-5.85Zm17.15,1.575A4.948,4.948,0,0,0,24.325.5,4.942,4.942,0,0,0,29.4-4.275,4.593,4.593,0,0,0,27.875-7.75a4.721,4.721,0,0,0,1.25-3.075,4.728,4.728,0,0,0-4.8-4.675A4.732,4.732,0,0,0,19.5-10.925,4.613,4.613,0,0,0,20.725-7.75a4.658,4.658,0,0,0-1.5,3.375Zm2.125-3.95a3.742,3.742,0,0,1-1.075-2.65,4.035,4.035,0,0,1,4-3.95v1.75a2.3,2.3,0,0,0-2.25,2.2,2.24,2.24,0,0,0,1.05,1.85A4.972,4.972,0,0,0,21.35-8.225ZM24.325-9.4A1.505,1.505,0,0,1,22.8-10.875a1.485,1.485,0,0,1,1.525-1.45,1.511,1.511,0,0,1,1.5,1.45A1.533,1.533,0,0,1,24.325-9.4Zm.05,9.2V-2a2.37,2.37,0,0,0,2.35-2.3A2.359,2.359,0,0,0,25.3-6.425a9.573,9.573,0,0,0,1.975-.825A3.9,3.9,0,0,1,28.6-4.3,4.263,4.263,0,0,1,24.375-.2ZM22.85-4.3a1.5,1.5,0,0,1,1.525-1.45,1.511,1.511,0,0,1,1.5,1.45,1.533,1.533,0,0,1-1.5,1.475A1.522,1.522,0,0,1,22.85-4.3ZM33.825-1.35a1.648,1.648,0,0,0,1.8,1.725,1.648,1.648,0,0,0,1.8-1.725,1.648,1.648,0,0,0-1.8-1.725A1.648,1.648,0,0,0,33.825-1.35Zm0-7.7a1.648,1.648,0,0,0,1.8,1.725,1.648,1.648,0,0,0,1.8-1.725,1.648,1.648,0,0,0-1.8-1.725A1.648,1.648,0,0,0,33.825-9.05Zm7.4,4.4A5.313,5.313,0,0,0,46.75.5c3.425,0,5.6-2.475,5.6-5A4.562,4.562,0,0,0,50.3-8.3a4.252,4.252,0,0,0,1.425-2.975c0-2.15-1.825-4.225-4.85-4.225a4.668,4.668,0,0,0-4.725,4.425v.35h3.675v-.35a1.031,1.031,0,0,1,1.05-1.075,1.1,1.1,0,0,1,1.15,1.075,1.36,1.36,0,0,1-1.325,1.4h-.8v3.4h.85c1.1,0,2.025.475,2.025,1.625A1.876,1.876,0,0,1,46.75-2.8a1.89,1.89,0,0,1-1.975-1.85v-.4h-3.55Zm1.875-6.9a3.634,3.634,0,0,1,3.65-3.125v1.8a1.9,1.9,0,0,0-1.8,1.325Zm-1,7.2h1.825A2.721,2.721,0,0,0,46.65-2V-.25A4.533,4.533,0,0,1,42.1-4.35ZM55.525,0h4L67.4-14.5V-15h-12v3.3h6.425ZM56.2-12.45V-14.2h7.075c-.375.6-.65,1.15-1.025,1.75ZM80.025,0h3.65V-5.4H86.3a4.7,4.7,0,0,0,4.875-4.8A4.679,4.679,0,0,0,86.3-15H80.025Zm.925-.7V-14.3h1.8V-.7Zm2.725-7.85v-3.325H85.95A1.456,1.456,0,0,1,87.425-10.3,1.6,1.6,0,0,1,85.95-8.55ZM96.025,0H99.7V-6.725L102.975.5h.6l3.275-7.175V0h3.65V-15h-3.375l-3.85,8.1L99.45-15H96.025Zm.925-.7V-13l1.825,4.1V-.7Zm7.675-3.2-.825-2,3.05-6.525v3.8Z" transform="translate(-1.125 15.5)" fill="#222"/>
</svg>
