<svg xmlns="http://www.w3.org/2000/svg" width="125.425" height="16" viewBox="0 0 125.425 16">
  <path id="Path_28" data-name="Path 28" d="M3.85,0h3.7V-11.75h3.4V-15H.5v3.25H3.85Zm.875-.7V-11.75H6.65V-.7ZM15.15,0h3.675V-5.925H24.7V0h3.65V-15H24.7v5.9H18.825V-15H15.15ZM25.625-.7V-5.925h1.8V-.7Zm-9.55,0V-5.925H17.9V-.7ZM33.25-5.05C33.25-1.6,35.7.5,39.125.5c3.3,0,5.95-2,5.95-5.55V-15H41.4v9.4c0,2-.875,2.7-2.275,2.7C37.85-2.9,36.9-3.6,36.9-5.6V-15H33.25ZM42.3-8.975V-14.3h1.85v5.325Zm-8.125,0V-14.3H36v5.325ZM49.975,0H53.65V-5.6L57.475,0h4.6l-4.05-5.575a4.332,4.332,0,0,0,3.55-4.65c0-2.825-2.1-4.775-5.325-4.775H49.975ZM50.9-.7V-14.3h1.825V-.7Zm2.75-7.8v-3.375H56.5a1.586,1.586,0,0,1,1.475,1.65A1.582,1.582,0,0,1,56.6-8.5ZM65.8-4.4A4.759,4.759,0,0,0,70.925.5,4.971,4.971,0,0,0,76-4.35C76-6.7,74.75-8.2,72.075-9c-1.275-.375-2.65-.575-2.65-1.7A1.449,1.449,0,0,1,71-12.15a1.455,1.455,0,0,1,1.55,1.55H76c-.2-2.775-1.775-4.9-5.1-4.9a4.993,4.993,0,0,0-5.1,4.85c0,2.575,1.4,3.75,3.925,4.65,1.225.425,2.7.75,2.7,1.875a1.322,1.322,0,0,1-1.5,1.3A1.563,1.563,0,0,1,69.375-4.4Zm7.425-6.9a2.207,2.207,0,0,0-2.3-1.55V-14.8A3.878,3.878,0,0,1,75.1-11.3Zm-6.55,7.6h1.95a2.281,2.281,0,0,0,2.3,1.575V-.2C68.55-.2,66.725-1.825,66.675-3.7ZM80.975,0H86.2a7.5,7.5,0,0,0,7.85-7.525A7.553,7.553,0,0,0,86.2-15H80.975ZM81.9-.7V-14.3h1.825V-.7Zm2.75-2.65v-8.325h1.475a3.962,3.962,0,0,1,4.15,4.15,4,4,0,0,1-4.15,4.175ZM96,0h3.95l.725-1.55H106.6L107.35,0h3.95l-7.35-15.5h-.65Zm5.825-4.175,1.75-3.8h.05l1.725,3.8Zm4.525,0h2.025L110.025-.7H107.95ZM97.25-.7,98.9-4.175h2.025L99.3-.7Zm19.7.7h3.65V-7.25L125.925-15H121.8l-3.025,4.5-3-4.5h-4.15l5.325,7.75Zm3.425-8.35L119.35-9.875l3-4.425h2.125Z" transform="translate(-0.5 15.5)" fill="#222"/>
</svg>
