<svg xmlns="http://www.w3.org/2000/svg" width="154.05" height="16" viewBox="0 0 154.05 16">
  <path id="Path_29" data-name="Path 29" d="M.275,0h12.4V-3.275H8.2L10.9-6a5.407,5.407,0,0,0,1.775-4,5.638,5.638,0,0,0-5.75-5.5A5.689,5.689,0,0,0,1.1-10,5.358,5.358,0,0,0,4.625-5.05L.275-.4ZM5.15-5.6A4.788,4.788,0,0,1,1.95-10,4.884,4.884,0,0,1,6.8-14.75v1.9A3,3,0,0,0,3.875-10a3,3,0,0,0,2.65,2.85ZM6.925-7.95A2.083,2.083,0,0,1,4.775-10a2.078,2.078,0,0,1,2.15-2.025A2.028,2.028,0,0,1,9-10,2.033,2.033,0,0,1,6.925-7.95Zm9.85,3.6A5.077,5.077,0,0,0,22.075.5,5.155,5.155,0,0,0,27.35-4.475v-6A5.18,5.18,0,0,0,22.075-15.5a5.186,5.186,0,0,0-5.3,5.025A4.591,4.591,0,0,0,21.4-5.625a6.056,6.056,0,0,0,2.275-.425v1.575a1.6,1.6,0,0,1-1.6,1.55A1.434,1.434,0,0,1,20.55-4.35v-.375H16.775Zm.775-6.175a4.49,4.49,0,0,1,4.525-4.25,4.507,4.507,0,0,1,4.525,4.25H24.65a2.53,2.53,0,0,0-2.575-2.325A2.447,2.447,0,0,0,19.5-10.525ZM22.075-8.85a1.716,1.716,0,0,1-1.7-1.575,1.7,1.7,0,0,1,1.7-1.625,1.721,1.721,0,0,1,1.7,1.625A1.735,1.735,0,0,1,22.075-8.85ZM39.725,0h3.95L44.4-1.55h5.925L51.075,0h3.95l-7.35-15.5h-.65ZM45.55-4.175l1.75-3.8h.05l1.725,3.8Zm4.525,0H52.1L53.75-.7H51.675ZM40.975-.7l1.65-3.475H44.65L43.025-.7Zm18.15.7h3.65V-5.4H65.4a4.7,4.7,0,0,0,4.875-4.8A4.679,4.679,0,0,0,65.4-15H59.125Zm.925-.7V-14.3h1.8V-.7Zm2.725-7.85v-3.325H65.05A1.456,1.456,0,0,1,66.525-10.3,1.6,1.6,0,0,1,65.05-8.55ZM75.125,0H78.8V-5.6L82.625,0h4.6l-4.05-5.575a4.332,4.332,0,0,0,3.55-4.65c0-2.825-2.1-4.775-5.325-4.775H75.125Zm.925-.7V-14.3h1.825V-.7ZM78.8-8.5v-3.375h2.85a1.586,1.586,0,0,1,1.475,1.65A1.582,1.582,0,0,1,81.75-8.5ZM98.975,0h12.4V-3.275H106.9L109.6-6a5.407,5.407,0,0,0,1.775-4,5.638,5.638,0,0,0-5.75-5.5A5.689,5.689,0,0,0,99.8-10a5.358,5.358,0,0,0,3.525,4.95L98.975-.4Zm4.875-5.6a4.788,4.788,0,0,1-3.2-4.4,4.884,4.884,0,0,1,4.85-4.75v1.9A3,3,0,0,0,102.575-10a3,3,0,0,0,2.65,2.85Zm1.775-2.35a2.083,2.083,0,0,1-2.15-2.05,2.078,2.078,0,0,1,2.15-2.025A2.028,2.028,0,0,1,107.7-10,2.033,2.033,0,0,1,105.625-7.95Zm9.65,2.025A6.423,6.423,0,0,0,121.9.5a6.479,6.479,0,0,0,6.725-6.425v-3.1A6.5,6.5,0,0,0,121.9-15.5a6.449,6.449,0,0,0-6.625,6.475Zm3.6-.075V-8.95a2.982,2.982,0,0,1,3.025-3.125,2.994,2.994,0,0,1,3.075,3.125V-6A2.953,2.953,0,0,1,121.9-2.925,2.941,2.941,0,0,1,118.875-6Zm-2.65.15h1.65A3.839,3.839,0,0,0,121.9-2.125a3.868,3.868,0,0,0,4.075-3.725H127.6a5.531,5.531,0,0,1-5.7,5.5A5.525,5.525,0,0,1,116.225-5.85ZM132.025,0h12.4V-3.275H139.95L142.65-6a5.407,5.407,0,0,0,1.775-4,5.638,5.638,0,0,0-5.75-5.5A5.689,5.689,0,0,0,132.85-10a5.358,5.358,0,0,0,3.525,4.95L132.025-.4ZM136.9-5.6a4.788,4.788,0,0,1-3.2-4.4,4.884,4.884,0,0,1,4.85-4.75v1.9A3,3,0,0,0,135.625-10a3,3,0,0,0,2.65,2.85Zm1.775-2.35a2.083,2.083,0,0,1-2.15-2.05,2.078,2.078,0,0,1,2.15-2.025A2.028,2.028,0,0,1,140.75-10,2.033,2.033,0,0,1,138.675-7.95ZM150.625,0h3.7V-15H151.25l-3.5,3.725,1.625,1.85,1.25-1.225Zm.95-.7V-6.025H153.4V-.7Z" transform="translate(-0.275 15.5)" fill="#222"/>
</svg>
