<svg xmlns="http://www.w3.org/2000/svg" width="368.52" height="38.4" viewBox="0 0 368.52 38.4">
  <path id="Path_30" data-name="Path 30" d="M2.88,0h15.9c6.84,0,10.8-4.56,10.8-9.54,0-3.72-1.56-6.24-5.28-8.88v-.12c2.52-1.92,3.9-4.02,3.9-7.38C28.2-31.56,23.4-36,17.4-36H2.88ZM5.1-1.68V-34.32H9.42V-1.68Zm6.54-19.98v-6.66h4.2a3.3,3.3,0,0,1,3.48,3.3,3.278,3.278,0,0,1-3.48,3.36Zm0,13.8v-6.3h5.34a3.172,3.172,0,0,1,3.36,3.18,3.03,3.03,0,0,1-3.36,3.12ZM33.84,0h8.82V-36H33.84Zm2.22-1.68V-14.52h4.38V-1.68Zm12.18-8.88c0,6.48,4.44,11.76,12.3,11.76A11.93,11.93,0,0,0,72.72-10.44c0-5.64-3-9.24-9.42-11.16-3.06-.9-6.36-1.38-6.36-4.08a3.477,3.477,0,0,1,3.78-3.48,3.493,3.493,0,0,1,3.72,3.72h8.28C72.24-32.1,68.46-37.2,60.48-37.2c-6.78,0-12.24,5.28-12.24,11.64,0,6.18,3.36,9,9.42,11.16,2.94,1.02,6.48,1.8,6.48,4.5,0,1.86-1.38,3.12-3.6,3.12a3.752,3.752,0,0,1-3.72-3.78ZM66.06-27.12c-.54-1.5-1.8-3.72-5.52-3.72v-4.68c7.02,0,9.66,4.86,10.02,8.4ZM50.34-8.88h4.68c.54,1.98,2.46,3.72,5.52,3.78V-.48C54.84-.48,50.46-4.38,50.34-8.88ZM78.66,0h8.82V-14.22h14.1V0h8.76V-36h-8.76v14.16H87.48V-36H78.66ZM103.8-1.68V-14.22h4.32V-1.68Zm-22.92,0V-14.22h4.38V-1.68ZM129.72,1.2h1.14l8.58-20.76L148.32,1.2h1.2l15-37.2h-9.18l-6.6,16.92L141.54-36h-9.12l2.28,5.7-4.38,11.28L123.06-36h-9.24ZM150-16.56l7.02-17.76h4.62l-9.36,23.1Zm-16.2,5.22-2.16-5.1,4.32-10.98,2.28,5.16ZM160.08,0h9.48l1.74-3.72h14.22L187.32,0h9.48L179.16-37.2H177.6Zm13.98-10.02,4.2-9.12h.12l4.14,9.12Zm10.86,0h4.86l3.96,8.34h-4.98ZM163.08-1.68l3.96-8.34h4.86L168-1.68ZM200.64,0h8.82V-21.42L223.5,0h9.18V-36h-8.76v21.36L209.94-36h-9.3Zm25.5-12.42v-21.9h4.32V-5.7ZM202.86-1.68V-30.54l4.38,6.9V-1.68ZM236.52,0H246l1.74-3.72h14.22L263.76,0h9.48L255.6-37.2h-1.56ZM250.5-10.02l4.2-9.12h.12l4.14,9.12Zm10.86,0h4.86l3.96,8.34H265.2ZM239.52-1.68l3.96-8.34h4.86l-3.9,8.34Zm34.68-9.18c0,7.56,5.7,12.06,13.2,12.06,7.02,0,12.96-4.62,12.96-12.18V-36h-8.7v23.46c0,4.38-1.92,5.58-4.68,5.58-2.82,0-3.84-1.62-4.26-4.2Zm19.68-10.86v-12.6h4.26v12.6ZM301.8,0h9.48l1.74-3.72h14.22L329.04,0h9.48L320.88-37.2h-1.56Zm13.98-10.02,4.2-9.12h.12l4.14,9.12Zm10.86,0h4.86l3.96,8.34h-4.98ZM304.8-1.68l3.96-8.34h4.86l-3.9,8.34ZM342.36,0h8.82V-13.44L360.36,0H371.4l-9.72-13.38c5.34-1.32,8.52-4.86,8.52-11.16,0-6.78-5.04-11.46-12.78-11.46H342.36Zm2.22-1.68V-34.32h4.38V-1.68Zm6.6-18.72v-8.1h6.84a3.807,3.807,0,0,1,3.54,3.96c0,2.1-1.32,4.14-3.3,4.14Z" transform="translate(-2.88 37.2)" fill="#222"/>
</svg>
