<svg id="stats" xmlns="http://www.w3.org/2000/svg" width="285.349" height="285.349" viewBox="0 0 285.349 285.349">
  <path id="Path_3" data-name="Path 3" d="M21.157,89.586a9.257,9.257,0,0,0,2.853-.634L93.763,55.661l47.875,29.8a6.3,6.3,0,0,0,6.658,0l78-50.095-3.8,14.9a6.076,6.076,0,0,0,4.756,7.609c.634,0,.951.317,1.585.317a6.11,6.11,0,0,0,6.024-4.756l7.609-30.754a6.076,6.076,0,0,0-4.756-7.609L206.951,7.151a6.076,6.076,0,0,0-7.609,4.756,6.076,6.076,0,0,0,4.756,7.609l16.8,4.122L144.809,72.465,97.567,42.978a5.888,5.888,0,0,0-6.024-.317L18.621,77.537a6.354,6.354,0,0,0-2.853,8.56C16.4,88.317,18.938,89.586,21.157,89.586Z" transform="translate(16.889 -0.81)"/>
  <path id="Path_4" data-name="Path 4" d="M34.023,201.7H236.938a19.079,19.079,0,0,0,19.023-19.023V50.15A18.965,18.965,0,0,0,226.793,34.3L151.651,81.221a6.3,6.3,0,0,1-6.658,0L106.946,57.442a19.368,19.368,0,0,0-19.023-.634L24.829,91.05A19.074,19.074,0,0,0,15,107.854v74.825A19.079,19.079,0,0,0,34.023,201.7Zm-6.341-93.848a7.084,7.084,0,0,1,3.171-5.707L93.947,67.9a5.214,5.214,0,0,1,3.171-.634,7.227,7.227,0,0,1,3.488.951l37.73,23.462a19.462,19.462,0,0,0,20.292,0l75.459-47.241a5.539,5.539,0,0,1,6.341,0A6.519,6.519,0,0,1,243.6,50.15V182.679a6.36,6.36,0,0,1-6.341,6.341H34.023a6.36,6.36,0,0,1-6.341-6.341Z" transform="translate(16.705 51.942)"/>
  <path id="Path_5" data-name="Path 5" d="M284.008,277.667H17.682V11.341A6.341,6.341,0,0,0,5,11.341V284.008a6.36,6.36,0,0,0,6.341,6.341H284.008a6.341,6.341,0,0,0,0-12.682Z" transform="translate(-5 -5)"/>
</svg>
