<svg id="video" xmlns="http://www.w3.org/2000/svg" width="348.817" height="286.805" viewBox="0 0 348.817 286.805">
  <path id="Path_6" data-name="Path 6" d="M330.563,13H28.254A23.323,23.323,0,0,0,5,36.254v240.3a23.323,23.323,0,0,0,23.254,23.254H330.563a23.323,23.323,0,0,0,23.254-23.254V36.254A23.323,23.323,0,0,0,330.563,13ZM222.042,28.5H276.3V59.509h-54.26Zm-69.763,0h54.26V59.509h-54.26Zm-69.763,0h54.26V59.509H82.515ZM20.5,36.254A7.774,7.774,0,0,1,28.254,28.5H67.012V59.509H20.5ZM67.012,284.3H28.254a7.774,7.774,0,0,1-7.751-7.751V253.3H67.012Zm69.763,0H82.515V253.3h54.26Zm69.763,0h-54.26V253.3h54.26Zm69.763,0h-54.26V253.3H276.3Zm62.012-7.751a7.774,7.774,0,0,1-7.751,7.751H291.805V253.3h46.509Zm0-38.757H20.5V75.012H338.314Zm0-178.284H291.805V28.5h38.757a7.774,7.774,0,0,1,7.751,7.751Z" transform="translate(-5 -13)"/>
  <path id="Path_7" data-name="Path 7" d="M48.715,152.513a22.937,22.937,0,0,0,11.24,2.713,22.475,22.475,0,0,0,12.79-3.876l56.586-37.207a23.176,23.176,0,0,0,0-38.757L72.357,38.178A22.578,22.578,0,0,0,48.715,37.4,23.78,23.78,0,0,0,36.7,57.945v74.414A23.638,23.638,0,0,0,48.715,152.513ZM52.2,57.557a7.969,7.969,0,0,1,3.876-6.976,8.338,8.338,0,0,1,3.876-.775,10.1,10.1,0,0,1,4.263,1.163l56.974,37.207a7.967,7.967,0,0,1,0,13.178L64.218,138.56a6.971,6.971,0,0,1-7.751.388,7.969,7.969,0,0,1-3.876-6.976V57.557Z" transform="translate(86.161 48.638)"/>
</svg>
