<svg xmlns="http://www.w3.org/2000/svg" width="245.611" height="245.611" viewBox="0 0 245.611 245.611">
  <path id="worldwide" d="M206.565,33.6h0a.377.377,0,0,1-.109-.082c-.027,0-.027-.027-.055-.027A122.655,122.655,0,0,0,67.877,20.637a.571.571,0,0,0-.164.109c-.027.027-.055.027-.082.055A122.782,122.782,0,1,0,206.565,33.6ZM192.92,36.848c-5.813,3.984-10.807,9.8-11.926,15.937a42.054,42.054,0,0,0-.519,4.667,28.942,28.942,0,0,1-.491,4.121,6.068,6.068,0,0,1-1.992,3.493,2.18,2.18,0,0,1-1.938.464c-.928-.409-1.856-2.374-2.756-4.257a32.6,32.6,0,0,0-2.893-5.24c-4.448-6.14-13.072-9.06-21.041-7.068-3,.764-13.782,5.949-16.811,12.526a8.7,8.7,0,0,0-.027,7.669,8.933,8.933,0,0,0,3.466,3.52c.928.573,1.938,1.119,2.975,1.692a22.687,22.687,0,0,1,5.076,3.3,10.213,10.213,0,0,1,1.419,2.811,23.591,23.591,0,0,0,2.183,4.421c2.947,4.421,7.45,6.14,11.08,7.532.546.218,1.119.437,1.637.655,2.893,1.173,4.94,2.811,7.723,5.1l.6.491c.846.682,1.692,1.31,2.593,1.965,2.292,1.692,4.448,3.3,5.431,5.185a20.976,20.976,0,0,1,1.119,2.865l4.257,12.608a26.989,26.989,0,0,0,3.22,7.041c2.483,3.6,6.086,5.1,9.006,6.3a14,14,0,0,1,4.066,2.183,8.771,8.771,0,0,1,2.893,6.031c-.027,1.938-1.092,4.175-3.138,6.659-2.674,3.22-5.376,6.359-8.078,9.524a288.968,288.968,0,0,0-18.721,23.388l-1.556,2.238a83.487,83.487,0,0,1-9.606,12.308c-6.877,6.823-17.575,9.142-27.945,10.943a15.526,15.526,0,0,1-2.7.3,1.583,1.583,0,0,1,.218-.791,13.643,13.643,0,0,1,3.384-3.384,22.564,22.564,0,0,0,6.5-7.259c4.721-9.224,6.44-23.5-.9-33.021-.737-.928-1.528-1.828-2.347-2.729a13.21,13.21,0,0,1-2.756-3.739c-.409-1.283.055-3.3.437-4.721,1.938-7.2,5.977-12.171,10.643-17.9,1.938-2.374,3.93-4.83,5.867-7.587,3.52-4.967,3.821-11.38,3.439-15.91a5.506,5.506,0,0,0-4.53-4.94c-1.119-.191-2.265-.246-3.357-.327a23.358,23.358,0,0,1-2.811-.273l.082-.355a30.286,30.286,0,0,0,.737-9.988c-1.692-12.553-14.546-14.082-23.033-15.091a42.272,42.272,0,0,1-7.45-1.283C97.186,73.144,84.66,58.9,79.229,39.822c-1.037-3.63-1.856-7.478-2.593-11.38A111.326,111.326,0,0,1,192.92,36.848ZM127.806,239.7A111.877,111.877,0,0,1,66.621,34.146c.628,2.92,1.31,5.786,2.1,8.569,6.413,22.542,21.45,39.462,41.29,46.421a46.069,46.069,0,0,0,9.77,1.828c9.115,1.092,13.017,2.129,13.509,5.731a21.574,21.574,0,0,1-.655,6.468l-.082.464a10.8,10.8,0,0,0,.273,6.168c2.019,5.131,6.632,6.386,10.207,6.8a9.383,9.383,0,0,1-1.392,4.121c-1.747,2.456-3.63,4.776-5.458,7.014-4.994,6.14-10.152,12.5-12.717,21.941-.791,2.947-1.556,6.877-.3,10.834,1.064,3.384,3.3,5.84,5.1,7.8.6.682,1.228,1.337,1.774,2.047,4.2,5.458,3.057,15.091-.164,21.4a12.954,12.954,0,0,1-3.63,3.766,22.487,22.487,0,0,0-6.058,6.55c-2.865,5.1-1.828,11.435,2.4,14.709a11.662,11.662,0,0,0,7.286,2.292,22.581,22.581,0,0,0,4.2-.437c12.062-2.074,24.643-4.885,33.758-13.945,4.312-4.285,7.669-9.17,10.916-13.891l1.5-2.183c5.485-7.914,11.571-14.982,18.039-22.487,2.756-3.193,5.485-6.386,8.214-9.661,3.657-4.421,5.567-8.951,5.649-13.4a19.678,19.678,0,0,0-6.14-14.027,22.49,22.49,0,0,0-7.5-4.476c-1.91-.791-3.548-1.474-4.2-2.456a19.01,19.01,0,0,1-1.856-4.339l-4.339-12.608a33.925,33.925,0,0,0-1.774-4.421c-2.156-4.121-5.594-6.659-8.6-8.9-.764-.573-1.5-1.119-2.238-1.692l-.573-.464a40.255,40.255,0,0,0-10.452-6.713c-.6-.246-1.228-.491-1.856-.737-2.62-1.01-4.912-1.883-5.922-3.411a16.222,16.222,0,0,1-1.146-2.456,18.489,18.489,0,0,0-3.657-6.277,32.45,32.45,0,0,0-7.75-5.322c-.136-.082-.273-.164-.437-.246a28.457,28.457,0,0,1,8.242-4.967c3.657-.928,7.669.3,9.524,2.865a22.636,22.636,0,0,1,1.883,3.493c1.583,3.384,3.575,7.587,8.3,9.633a13.077,13.077,0,0,0,12.881-1.774,16.973,16.973,0,0,0,6.031-9.661,36.55,36.55,0,0,0,.764-5.84,32.342,32.342,0,0,1,.382-3.52c.573-3.193,4.939-8,10.261-10.643A111.841,111.841,0,0,1,127.806,239.7Z" transform="translate(-5 -5)"/>
</svg>
